<?xml version="1.0" encoding="UTF-8"?>
<!DOCTYPE svg PUBLIC "-//W3C//DTD SVG 1.1//EN" "http://www.w3.org/Graphics/SVG/1.1/DTD/svg11.dtd">
<svg version="1.2" width="80mm" height="80mm" viewBox="0 0 8000 8000" preserveAspectRatio="xMidYMid" fill-rule="evenodd" stroke-width="28.222" stroke-linejoin="round" xmlns="http://www.w3.org/2000/svg" xmlns:ooo="http://xml.openoffice.org/svg/export" xmlns:xlink="http://www.w3.org/1999/xlink" xmlns:presentation="http://sun.com/xmlns/staroffice/presentation" xmlns:smil="http://www.w3.org/2001/SMIL20/" xmlns:anim="urn:oasis:names:tc:opendocument:xmlns:animation:1.0" xml:space="preserve">
 <defs class="ClipPathGroup">
  <clipPath id="presentation_clip_path" clipPathUnits="userSpaceOnUse">
   <rect x="0" y="0" width="8000" height="8000"/>
  </clipPath>
 </defs>
 <defs class="TextShapeIndex">
  <g ooo:slide="id1" ooo:id-list="id3 id4 id5 id6 id7 id8 id9 id10 id11 id12 id13 id14 id15"/>
 </defs>
 <defs class="EmbeddedBulletChars">
  <g id="bullet-char-template(57356)" transform="scale(0.00048828125,-0.00048828125)">
   <path d="M 580,1141 L 1163,571 580,0 -4,571 580,1141 Z"/>
  </g>
  <g id="bullet-char-template(57354)" transform="scale(0.00048828125,-0.00048828125)">
   <path d="M 8,1128 L 1137,1128 1137,0 8,0 8,1128 Z"/>
  </g>
  <g id="bullet-char-template(10146)" transform="scale(0.00048828125,-0.00048828125)">
   <path d="M 174,0 L 602,739 174,1481 1456,739 174,0 Z M 1358,739 L 309,1346 659,739 1358,739 Z"/>
  </g>
  <g id="bullet-char-template(10132)" transform="scale(0.00048828125,-0.00048828125)">
   <path d="M 2015,739 L 1276,0 717,0 1260,543 174,543 174,936 1260,936 717,1481 1274,1481 2015,739 Z"/>
  </g>
  <g id="bullet-char-template(10007)" transform="scale(0.00048828125,-0.00048828125)">
   <path d="M 0,-2 C -7,14 -16,27 -25,37 L 356,567 C 262,823 215,952 215,954 215,979 228,992 255,992 264,992 276,990 289,987 310,991 331,999 354,1012 L 381,999 492,748 772,1049 836,1024 860,1049 C 881,1039 901,1025 922,1006 886,937 835,863 770,784 769,783 710,716 594,584 L 774,223 C 774,196 753,168 711,139 L 727,119 C 717,90 699,76 672,76 641,76 570,178 457,381 L 164,-76 C 142,-110 111,-127 72,-127 30,-127 9,-110 8,-76 1,-67 -2,-52 -2,-32 -2,-23 -1,-13 0,-2 Z"/>
  </g>
  <g id="bullet-char-template(10004)" transform="scale(0.00048828125,-0.00048828125)">
   <path d="M 285,-33 C 182,-33 111,30 74,156 52,228 41,333 41,471 41,549 55,616 82,672 116,743 169,778 240,778 293,778 328,747 346,684 L 369,508 C 377,444 397,411 428,410 L 1163,1116 C 1174,1127 1196,1133 1229,1133 1271,1133 1292,1118 1292,1087 L 1292,965 C 1292,929 1282,901 1262,881 L 442,47 C 390,-6 338,-33 285,-33 Z"/>
  </g>
  <g id="bullet-char-template(9679)" transform="scale(0.00048828125,-0.00048828125)">
   <path d="M 813,0 C 632,0 489,54 383,161 276,268 223,411 223,592 223,773 276,916 383,1023 489,1130 632,1184 813,1184 992,1184 1136,1130 1245,1023 1353,916 1407,772 1407,592 1407,412 1353,268 1245,161 1136,54 992,0 813,0 Z"/>
  </g>
  <g id="bullet-char-template(8226)" transform="scale(0.00048828125,-0.00048828125)">
   <path d="M 346,457 C 273,457 209,483 155,535 101,586 74,649 74,723 74,796 101,859 155,911 209,963 273,989 346,989 419,989 480,963 531,910 582,859 608,796 608,723 608,648 583,586 532,535 482,483 420,457 346,457 Z"/>
  </g>
  <g id="bullet-char-template(8211)" transform="scale(0.00048828125,-0.00048828125)">
   <path d="M -4,459 L 1135,459 1135,606 -4,606 -4,459 Z"/>
  </g>
 </defs>
 <defs class="TextEmbeddedBitmaps"/>
 <g>
  <g id="id2" class="Master_Slide">
   <g id="bg-id2" class="Background"/>
   <g id="bo-id2" class="BackgroundObjects"/>
  </g>
 </g>
 <g class="SlideGroup">
  <g>
   <g id="id1" class="Slide" clip-path="url(#presentation_clip_path)">
    <g class="Page">
     <g class="com.sun.star.drawing.CustomShape">
      <g id="id3">
       <rect class="BoundingBox" stroke="none" fill="none" x="58" y="0" width="7944" height="7943"/>
       <path fill="rgb(178,178,178)" stroke="none" d="M 3957,141 C 6168,141 7858,1830 7858,4041 7858,6252 6170,7941 3959,7941 1748,7941 59,6252 59,4041 59,1830 1746,141 3957,141 Z M 58,141 L 58,141 Z M 7860,7942 L 7860,7942 Z"/>
       <path fill="rgb(204,204,204)" stroke="none" d="M 4098,0 C 6309,0 7999,1689 7999,3900 7999,6111 6311,7800 4100,7800 1889,7800 200,6111 200,3900 200,1689 1887,0 4098,0 Z M 199,0 L 199,0 Z M 8001,7801 L 8001,7801 Z"/>
      </g>
     </g>
     <g class="com.sun.star.drawing.CustomShape">
      <g id="id4">
       <rect class="BoundingBox" stroke="none" fill="none" x="2167" y="1077" width="3678" height="5191"/>
       <defs>
        <mask id="mask1">
         <g>
          <defs>
           <linearGradient id="gradient1" x1="3930" y1="1228" x2="3930" y2="6267" gradientUnits="userSpaceOnUse">
            <stop offset="0.5" style="stop-color:rgb(115,115,115)"/>
            <stop offset="0.5" style="stop-color:rgb(115,115,115)"/>
            <stop offset="1" style="stop-color:rgb(115,115,115)"/>
            <stop offset="1" style="stop-color:rgb(115,115,115)"/>
           </linearGradient>
          </defs>
          <path style="fill:url(#gradient1)" d="M 2167,1228 L 5694,1228 5694,6267 2167,6267 2167,1228 Z"/>
         </g>
        </mask>
       </defs>
       <g style="mask:url(#mask1)">
        <path fill="rgb(51,51,51)" stroke="none" d="M 5221,2241 C 5891,2815 5843,3906 5112,4759 4380,5612 3309,5827 2640,5253 1970,4679 2018,3587 2749,2733 3481,1880 4552,1667 5221,2241 Z M 4040,1228 L 4040,1228 Z M 3821,6267 L 3821,6267 Z"/>
       </g>
       <path fill="rgb(153,153,153)" stroke="none" d="M 5371,2091 C 6041,2665 5993,3756 5262,4609 4530,5462 3459,5677 2790,5103 2120,4529 2168,3437 2899,2583 3631,1730 4702,1517 5371,2091 Z M 4190,1078 L 4190,1078 Z M 3971,6117 L 3971,6117 Z"/>
      </g>
     </g>
     <g class="com.sun.star.drawing.CustomShape">
      <g id="id5">
       <rect class="BoundingBox" stroke="none" fill="none" x="5287" y="1829" width="2114" height="2019"/>
       <defs>
        <mask id="mask2">
         <g>
          <defs>
           <linearGradient id="gradient2" x1="6294" y1="1930" x2="6294" y2="3847" gradientUnits="userSpaceOnUse">
            <stop offset="0.5" style="stop-color:rgb(102,102,102)"/>
            <stop offset="0.5" style="stop-color:rgb(102,102,102)"/>
            <stop offset="1" style="stop-color:rgb(102,102,102)"/>
            <stop offset="1" style="stop-color:rgb(102,102,102)"/>
           </linearGradient>
          </defs>
          <path style="fill:url(#gradient2)" d="M 5288,1930 L 7300,1930 7300,3847 5288,3847 5288,1930 Z"/>
         </g>
        </mask>
       </defs>
       <g style="mask:url(#mask2)">
        <path fill="rgb(51,51,51)" stroke="none" d="M 6293,1930 C 6863,1930 7299,2345 7299,2888 7299,3431 6863,3846 6293,3846 5723,3846 5288,3431 5288,2888 5288,2345 5723,1930 6293,1930 Z M 5288,1930 L 5288,1930 Z M 7300,3847 L 7300,3847 Z"/>
       </g>
       <path fill="rgb(51,51,51)" stroke="none" d="M 6393,1830 C 6963,1830 7399,2245 7399,2788 7399,3331 6963,3746 6393,3746 5823,3746 5388,3331 5388,2788 5388,2245 5823,1830 6393,1830 Z M 5388,1830 L 5388,1830 Z M 7400,3747 L 7400,3747 Z"/>
      </g>
     </g>
     <g class="com.sun.star.drawing.CustomShape">
      <g id="id6">
       <rect class="BoundingBox" stroke="none" fill="none" x="3803" y="3191" width="1477" height="1416"/>
       <defs>
        <mask id="mask3">
         <g>
          <defs>
           <linearGradient id="gradient3" x1="4491" y1="3292" x2="4491" y2="4606" gradientUnits="userSpaceOnUse">
            <stop offset="0.5" style="stop-color:rgb(102,102,102)"/>
            <stop offset="0.5" style="stop-color:rgb(102,102,102)"/>
            <stop offset="1" style="stop-color:rgb(102,102,102)"/>
            <stop offset="1" style="stop-color:rgb(102,102,102)"/>
           </linearGradient>
          </defs>
          <path style="fill:url(#gradient3)" d="M 3803,3292 L 5179,3292 5179,4606 3803,4606 3803,3292 Z"/>
         </g>
        </mask>
       </defs>
       <g style="mask:url(#mask3)">
        <path fill="rgb(51,51,51)" stroke="none" d="M 4490,3292 C 4880,3292 5178,3576 5178,3948 5178,4320 4880,4605 4490,4605 4100,4605 3803,4320 3803,3948 3803,3576 4100,3292 4490,3292 Z M 3803,3292 L 3803,3292 Z M 5179,4606 L 5179,4606 Z"/>
       </g>
       <path fill="rgb(76,76,76)" stroke="none" d="M 4590,3192 C 4980,3192 5278,3476 5278,3848 5278,4220 4980,4505 4590,4505 4200,4505 3903,4220 3903,3848 3903,3476 4200,3192 4590,3192 Z M 3903,3192 L 3903,3192 Z M 5279,4506 L 5279,4506 Z"/>
      </g>
     </g>
     <g class="com.sun.star.drawing.CustomShape">
      <g id="id7">
       <rect class="BoundingBox" stroke="none" fill="none" x="4213" y="7262" width="198" height="209"/>
       <path fill="rgb(76,76,76)" stroke="none" d="M 4311,7263 C 4366,7263 4409,7307 4409,7365 4409,7423 4366,7468 4311,7468 4256,7468 4213,7423 4213,7365 4213,7307 4256,7263 4311,7263 Z M 4213,7263 L 4213,7263 Z M 4410,7470 L 4410,7470 Z"/>
      </g>
     </g>
     <g class="com.sun.star.drawing.CustomShape">
      <g id="id8">
       <rect class="BoundingBox" stroke="none" fill="none" x="1472" y="6127" width="242" height="261"/>
       <path fill="rgb(76,76,76)" stroke="none" d="M 1592,6127 C 1660,6127 1712,6183 1712,6256 1712,6329 1660,6386 1592,6386 1524,6386 1472,6329 1472,6256 1472,6183 1524,6127 1592,6127 Z M 1472,6127 L 1472,6127 Z M 1713,6387 L 1713,6387 Z"/>
      </g>
     </g>
     <g class="com.sun.star.drawing.CustomShape">
      <g id="id9">
       <rect class="BoundingBox" stroke="none" fill="none" x="1823" y="6418" width="303" height="312"/>
       <path fill="rgb(76,76,76)" stroke="none" d="M 1973,6418 C 2058,6418 2123,6485 2123,6573 2123,6661 2058,6728 1973,6728 1888,6728 1823,6661 1823,6573 1823,6485 1888,6418 1973,6418 Z M 1823,6418 L 1823,6418 Z M 2124,6729 L 2124,6729 Z"/>
      </g>
     </g>
     <g class="com.sun.star.drawing.CustomShape">
      <g id="id10">
       <rect class="BoundingBox" stroke="none" fill="none" x="3775" y="7222" width="228" height="247"/>
       <path fill="rgb(76,76,76)" stroke="none" d="M 3888,7222 C 3952,7222 4001,7275 4001,7344 4001,7413 3952,7467 3888,7467 3824,7467 3775,7413 3775,7344 3775,7275 3824,7222 3888,7222 Z M 3775,7222 L 3775,7222 Z M 4002,7468 L 4002,7468 Z"/>
      </g>
     </g>
     <g class="com.sun.star.drawing.CustomShape">
      <g id="id11">
       <rect class="BoundingBox" stroke="none" fill="none" x="2288" y="6705" width="353" height="352"/>
       <path fill="rgb(76,76,76)" stroke="none" d="M 2463,6705 C 2562,6705 2638,6781 2638,6880 2638,6979 2562,7055 2463,7055 2364,7055 2288,6979 2288,6880 2288,6781 2364,6705 2463,6705 Z M 2288,6705 L 2288,6705 Z M 2639,7056 L 2639,7056 Z"/>
      </g>
     </g>
     <g class="com.sun.star.drawing.CustomShape">
      <g id="id12">
       <rect class="BoundingBox" stroke="none" fill="none" x="2831" y="6975" width="302" height="312"/>
       <path fill="rgb(76,76,76)" stroke="none" d="M 2981,6975 C 3066,6975 3131,7042 3131,7130 3131,7218 3066,7285 2981,7285 2896,7285 2831,7218 2831,7130 2831,7042 2896,6975 2981,6975 Z M 2831,6975 L 2831,6975 Z M 3132,7286 L 3132,7286 Z"/>
      </g>
     </g>
     <g class="com.sun.star.drawing.CustomShape">
      <g id="id13">
       <rect class="BoundingBox" stroke="none" fill="none" x="3311" y="7140" width="247" height="264"/>
       <path fill="rgb(76,76,76)" stroke="none" d="M 3433,7140 C 3502,7140 3555,7197 3555,7271 3555,7345 3502,7402 3433,7402 3364,7402 3311,7345 3311,7271 3311,7197 3364,7140 3433,7140 Z M 3311,7140 L 3311,7140 Z M 3556,7403 L 3556,7403 Z"/>
      </g>
     </g>
     <g class="com.sun.star.drawing.CustomShape">
      <g id="id14">
       <rect class="BoundingBox" stroke="none" fill="none" x="1208" y="5837" width="232" height="233"/>
       <path fill="rgb(76,76,76)" stroke="none" d="M 1323,5837 C 1388,5837 1438,5887 1438,5952 1438,6017 1388,6067 1323,6067 1258,6067 1208,6017 1208,5952 1208,5887 1258,5837 1323,5837 Z M 1208,5837 L 1208,5837 Z M 1439,6069 L 1439,6069 Z"/>
      </g>
     </g>
     <g class="com.sun.star.drawing.CustomShape">
      <g id="id15">
       <rect class="BoundingBox" stroke="none" fill="none" x="1021" y="5552" width="206" height="193"/>
       <path fill="rgb(76,76,76)" stroke="none" d="M 1123,5552 C 1181,5552 1225,5593 1225,5647 1225,5701 1181,5742 1123,5742 1065,5742 1021,5701 1021,5647 1021,5593 1065,5552 1123,5552 Z M 1021,5552 L 1021,5552 Z M 1226,5743 L 1226,5743 Z"/>
      </g>
     </g>
    </g>
   </g>
  </g>
 </g>
</svg>